<?xml version="1.0" encoding="utf-8"?>
<!-- Generator: Adobe Illustrator 23.0.3, SVG Export Plug-In . SVG Version: 6.00 Build 0)  -->
<svg version="1.1"
	 id="svg10" xmlns:cc="http://creativecommons.org/ns#" xmlns:dc="http://purl.org/dc/elements/1.1/" xmlns:inkscape="http://www.inkscape.org/namespaces/inkscape" xmlns:rdf="http://www.w3.org/1999/02/22-rdf-syntax-ns#" xmlns:sodipodi="http://sodipodi.sourceforge.net/DTD/sodipodi-0.dtd" xmlns:svg="http://www.w3.org/2000/svg"
	 xmlns="http://www.w3.org/2000/svg" xmlns:xlink="http://www.w3.org/1999/xlink" x="0px" y="0px" viewBox="0 0 904.225 136.716"
	 enable-background="new 0 0 904.225 136.716" xml:space="preserve">
<sodipodi:namedview  bordercolor="#666666" borderopacity="1" fit-margin-bottom="0" fit-margin-left="0" fit-margin-right="0" fit-margin-top="0" gridtolerance="10" guidetolerance="10" id="namedview12" inkscape:current-layer="g18" inkscape:cx="528.80546" inkscape:cy="102.67524" inkscape:pageopacity="0" inkscape:pageshadow="2" inkscape:window-height="1001" inkscape:window-maximized="1" inkscape:window-width="1920" inkscape:window-x="-9" inkscape:window-y="-9" inkscape:zoom="1.0180151" objecttolerance="10" pagecolor="#ffffff" showgrid="false">
	</sodipodi:namedview>
<g id="g18" transform="matrix(1.3333333,0,0,-1.3333333,-32.45455,430.89132)" inkscape:groupmode="layer" inkscape:label="logo">
	<g id="g64">
		<g>
			<defs>
				<rect id="SVGID_1_" x="-219.846" y="198.25" width="1054.121" height="179.045"/>
			</defs>
			<clipPath id="SVGID_2_">
				<use xlink:href="#SVGID_1_"  overflow="visible"/>
			</clipPath>
			<g id="g66" clip-path="url(#SVGID_2_)">
				<g id="g76" transform="translate(217.3999,262.01)">
					<path id="path78" inkscape:connector-curvature="0" fill="#2F3842" d="M-112.421,0c0.946-10.812-3.021-24.257-15.838-24.257
						c-2.441,0-4.382,0.264-6.26,0.79l0.375,3.693c1.106,10.283,8.381,27.772,16.577,27.772C-114.864,7.998-112.921,5.712-112.421,0
						 M-104.681,1.495c-0.803,9.172-4.522,13.135-10.763,13.135c-8.894,0-14.991-8.04-18.53-18.409l-0.182,0.088
						c2.277,9.843,2.996,13.584,3.336,16.683l2.258,21.012l-8.634-5.442l-5.569-57.424c3.998-0.853,8.497-1.45,13.641-1.45
						C-110.118-30.312-103.274-14.59-104.681,1.495"/>
				</g>
				<g id="g80" transform="translate(150.2944,270.008)">
					<path id="path82" inkscape:connector-curvature="0" fill="#B49E65" d="M-112.421,0c8.195,0,15.471-17.49,16.577-27.772
						l0.375-3.692c-1.878-0.526-3.82-0.791-6.26-0.791c-12.817,0-16.784,13.445-15.838,24.257C-117.067-2.285-115.124,0-112.421,0
						 M-100.864-38.31c5.144,0,9.643,0.597,13.64,1.451l-5.874,57.323l-8.328,5.542l2.258-21.011
						c0.339-3.1,1.059-6.842,3.336-16.684l-0.182-0.088c-3.539,10.37-9.636,18.408-18.53,18.408c-6.241,0-9.96-3.962-10.763-13.135
						C-126.715-22.588-119.871-38.31-100.864-38.31"/>
				</g>
				<g id="g84" transform="translate(268.4912,232.4699)">
					<path id="path86" inkscape:connector-curvature="0" fill="#2F3842" d="M-112.421,0h-7.668l2.885,27.772
						c0.713,6.8-0.767,9.766-4.689,9.766c-8.018,0-15.419-17.005-16.485-27.729L-139.349,0h-7.669l2.369,22.714
						c0.592,6.19,1.45,14.3,2.033,20.595h7.582c-0.275-2.843-1.062-7.777-3.304-17.02h0.174c3.295,9.155,9.416,17.88,18.48,17.88
						c8.018,0,11.209-5.599,10.346-14.652L-112.421,0z"/>
				</g>
			</g>
		</g>
	</g>
	<g id="g88">
		<g>
			<defs>
				<rect id="SVGID_3_" x="-252.736" y="-99.213" width="1122.52" height="793.701"/>
			</defs>
			<clipPath id="SVGID_4_">
				<use xlink:href="#SVGID_3_"  overflow="visible"/>
			</clipPath>
			<g id="g90" clip-path="url(#SVGID_4_)">
				<g id="g96" transform="translate(290.6689,232.4699)">
					<path id="path98" inkscape:connector-curvature="0" fill="#2F3842" d="M-112.421,0h-7.676l6.716,61.198h7.676L-112.421,0z"/>
				</g>
				<g id="g100" transform="translate(181.228,307.6555)">
					<path id="path102" inkscape:connector-curvature="0" fill="#B49E65" d="M-112.421,0l22.585,15.513l-1.403-12.035
						l-21.182-13.885l-21.176,13.885l-1.409,12.035L-112.421,0z"/>
				</g>
			</g>
		</g>
	</g>
	<g id="g108">
		<g>
			<defs>
				<rect id="SVGID_5_" x="-219.846" y="198.25" width="1054.121" height="179.045"/>
			</defs>
			<clipPath id="SVGID_6_">
				<use xlink:href="#SVGID_5_"  overflow="visible"/>
			</clipPath>
			<g id="g110" clip-path="url(#SVGID_6_)">
				<g id="g116" transform="translate(318.6147,242.0305)">
					<path id="path118" inkscape:connector-curvature="0" fill="#B49E65" d="M-112.421,0l-0.413-2.744
						c-0.368-1.774-3.003-4.64-4.382-4.64c-0.485,0-0.904,0.146-0.962,1.238c-0.111,2.114,0.584,4.568,1.635,5.758
						c0.527,0.606,1.232,0.995,2.055,0.995C-113.398,0.607-112.748,0.244-112.421,0 M-109.493,8.354h-1.743l-0.971-6.908
						c0,0-0.705,0.53-2.182,0.53c-4.458,0-5.74-5.23-5.581-8.243c0.087-1.674,0.678-2.764,1.919-2.764
						c0.993,0,1.754,0.29,2.617,0.897c1.402,0.968,2.29,2.523,2.29,2.523l-0.414-3.202c0,0,0.32-0.097,1.095-0.097
						c2.01,0,3.22,0.945,3.22,0.945l-0.645,1.213c0,0-1.012-0.56-1.811-0.56c0,0,0.11,1.143,0.531,4.204
						C-110.505,1.353-109.493,8.354-109.493,8.354"/>
				</g>
				<g id="g120" transform="translate(326.7075,246.9465)">
					<path id="path122" inkscape:connector-curvature="0" fill="#B49E65" d="M-112.421,0c-0.848,0-1.055,0.727-1.075,1.089
						c-0.047,0.896,0.503,1.502,1.278,1.502c0.678,0,0.993-0.461,1.028-1.115C-111.148,0.654-111.646,0-112.421,0 M-113.056-13.766
						h-1.743l1.165,10.574h1.744L-113.056-13.766z"/>
				</g>
				<g id="g124" transform="translate(337.7505,242.0295)">
					<path id="path126" inkscape:connector-curvature="0" fill="#B49E65" d="M-112.421,0l-0.498-2.993
						c-0.175-0.828-0.89-1.997-1.737-2.921c-0.986-1.072-1.934-1.484-2.589-1.484c-0.46,0-0.88,0.145-0.937,1.24
						c-0.111,2.118,0.583,4.577,1.637,5.768c0.525,0.609,1.232,0.998,2.055,0.998C-113.399,0.608-112.749,0.242-112.421,0
						 M-110.368,1.977h-1.163l-0.401-0.649c0,0-0.859,0.649-2.362,0.649c-1.235,0-2.142-0.288-3.003-0.96
						c-2.028-1.602-2.809-4.789-2.678-7.295c0.088-1.68,0.68-2.776,1.92-2.776c3.005,0,4.785,3.042,4.785,3.042
						s-0.244-0.413-0.173-1.776c0.035-0.681,0.168-1.361,0.226-2.473c0.057-1.087,0.037-2.078-0.439-2.705
						c-0.545-0.701-1.369-1.183-2.847-1.183c-2.379,0-4.308,1.642-4.308,1.642l-0.474-1.57c0,0,1.802-1.586,4.619-1.586
						c1.745,0,3.127,0.456,3.933,1.249c1.177,1.135,1.382,2.317,1.284,4.201c-0.026,0.484-0.215,1.791-0.246,2.375
						c-0.082,1.56,0.033,2.166,0.431,4.723C-110.866-0.536-110.368,1.977-110.368,1.977"/>
				</g>
				<g id="g128" transform="translate(345.1123,246.9465)">
					<path id="path130" inkscape:connector-curvature="0" fill="#B49E65" d="M-112.421,0c-0.848,0-1.055,0.727-1.074,1.089
						c-0.048,0.896,0.503,1.502,1.277,1.502c0.678,0,0.994-0.461,1.027-1.115C-111.148,0.654-111.646,0-112.421,0 M-113.056-13.766
						h-1.743l1.165,10.574h1.744L-113.056-13.766z"/>
				</g>
				<g id="g132" transform="translate(355.0513,242.0217)">
					<path id="path134" inkscape:connector-curvature="0" fill="#B49E65" d="M-112.421,0h-3.149c0,0-0.238-1.919-0.476-3.861
						c-0.111-1.095-0.186-1.968-0.157-2.551c0.046-0.851,0.47-1.094,1.052-1.094c0.943,0,1.798,0.801,2.216,1.117l0.106-1.55
						c0,0-1.177-1.109-3.042-1.109c-1.421,0-2.046,0.916-2.101,1.955c-0.04,0.778,0.19,2.819,0.337,4.155
						c0.155,1.603,0.328,2.914,0.328,2.914h-1.64l0.168,1.426h1.614l0.703,2.688h1.356l-0.317-2.712h3.148L-112.421,0z"/>
				</g>
				<g id="g136" transform="translate(364.7266,242.0295)">
					<path id="path138" inkscape:connector-curvature="0" fill="#B49E65" d="M-112.421,0l-0.462-2.75
						c-0.367-1.775-2.928-4.646-4.357-4.646c-0.461,0-0.88,0.146-0.938,1.241c-0.11,2.117,0.584,4.574,1.635,5.765
						c0.526,0.609,1.232,0.998,2.056,0.998C-113.398,0.608-112.748,0.244-112.421,0 M-109.242-7.973l-0.617,1.16
						c0,0-1.037-0.559-1.836-0.559c0,0,0.058,1.192,0.478,4.257c0.348,2.603,0.799,5.092,0.799,5.092h-1.161l-0.354-0.649
						c0,0-0.857,0.649-2.359,0.649c-1.235,0-2.142-0.288-3.002-0.96c-2.027-1.602-2.807-4.788-2.676-7.294
						c0.088-1.672,0.678-2.754,1.919-2.754c0.993,0,1.754,0.289,2.617,0.889c1.402,0.964,2.29,2.521,2.29,2.521l-0.413-3.193
						c0,0,0.319-0.096,1.094-0.096C-110.453-8.91-109.242-7.973-109.242-7.973"/>
				</g>
			</g>
		</g>
	</g>
	<g id="g140">
		<g>
			<defs>
				<rect id="SVGID_7_" x="-252.736" y="-99.213" width="1122.52" height="793.701"/>
			</defs>
			<clipPath id="SVGID_8_">
				<use xlink:href="#SVGID_7_"  overflow="visible"/>
			</clipPath>
			<g id="g142" clip-path="url(#SVGID_8_)">
				<g id="g148" transform="translate(371.9165,233.1799)">
					<path id="path150" inkscape:connector-curvature="0" fill="#B49E65" d="M-112.421,0h-1.744l1.859,17.204h1.744L-112.421,0z"/>
				</g>
			</g>
		</g>
	</g>
	<g id="g152">
		<g>
			<defs>
				<rect id="SVGID_9_" x="-219.846" y="198.25" width="1054.121" height="179.045"/>
			</defs>
			<clipPath id="SVGID_10_">
				<use xlink:href="#SVGID_9_"  overflow="visible"/>
			</clipPath>
			<g id="g154" clip-path="url(#SVGID_10_)">
				<g id="g160" transform="translate(382.5283,241.5891)">
					<path id="path162" inkscape:connector-curvature="0" fill="#B49E65" d="M-112.421,0c0.063-1.194-0.982-1.684-2.225-2.122
						c-1.409-0.488-2.329-0.585-2.329-0.585c0.47,2.659,1.92,3.756,3.21,3.756C-113.132,1.049-112.464,0.83-112.421,0
						 M-110.625,0.171c-0.077,1.477-1.296,2.246-2.896,2.246c-3.892,0-5.546-3.881-5.358-7.49c0.142-2.698,1.585-3.541,3.528-3.541
						c2.92,0,5.047,2.201,5.047,2.201l-0.811,1.242c0,0-1.714-1.901-4-1.901c-1.338,0-1.938,0.779-2.011,2.17
						c-0.028,0.537,0.028,0.83,0.028,0.83s1.692,0.244,3.219,0.805C-111.691-2.463-110.534-1.585-110.625,0.171"/>
				</g>
				<g id="g164" transform="translate(400.8643,238.4455)">
					<path id="path166" inkscape:connector-curvature="0" fill="#2F3842" d="M-112.421,0c0-3.169-1.769-4.192-3.464-4.192
						c-1.621,0-2.3,0.78-2.3,0.78v6.678c0,0,0.799,0.782,2.542,0.782C-113.802,4.048-112.421,2.657-112.421,0 M-110.325,0.609
						c0,3.243-2.194,4.952-4.494,4.952c-2.082,0-3.366-1.154-3.366-1.154v7.531h-2.008V-4.143c0,0,1.355-1.356,4.116-1.356
						C-112.833-5.499-110.325-3.192-110.325,0.609"/>
				</g>
				<g id="g168" transform="translate(407.3975,246.8605)">
					<path id="path170" inkscape:connector-curvature="0" fill="#2F3842" d="M-112.421,0c-0.726,0-1.307,0.582-1.307,1.308
						c0,0.727,0.581,1.308,1.307,1.308c0.726,0,1.307-0.581,1.307-1.308C-111.114,0.582-111.695,0-112.421,0 M-113.389-3.099h2.008
						v-10.582h-2.008V-3.099z"/>
				</g>
				<g id="g172" transform="translate(420.6968,238.4455)">
					<path id="path174" inkscape:connector-curvature="0" fill="#2F3842" d="M-112.421,0c0-3.169-1.768-4.192-3.463-4.192
						c-1.622,0-2.301,0.78-2.301,0.78v6.678c0,0,0.8,0.782,2.544,0.782C-113.801,4.048-112.421,2.657-112.421,0 M-110.325,0.609
						c0,3.243-2.194,4.952-4.493,4.952c-2.083,0-3.367-1.154-3.367-1.154v7.531h-2.008V-4.143c0,0,1.355-1.356,4.116-1.356
						C-112.833-5.499-110.325-3.192-110.325,0.609"/>
				</g>
			</g>
		</g>
	</g>
	<g id="g176">
		<g>
			<defs>
				<rect id="SVGID_11_" x="-252.736" y="-99.213" width="1122.52" height="793.701"/>
			</defs>
			<clipPath id="SVGID_12_">
				<use xlink:href="#SVGID_11_"  overflow="visible"/>
			</clipPath>
			<g id="g178" clip-path="url(#SVGID_12_)">
				<path id="path184" inkscape:connector-curvature="0" fill="#2F3842" d="M313.942,250.383h2.008V233.18h-2.008V250.383z"/>
			</g>
		</g>
	</g>
	<g id="g186">
		<g>
			<defs>
				<rect id="SVGID_13_" x="-219.846" y="198.25" width="1054.121" height="179.045"/>
			</defs>
			<clipPath id="SVGID_14_">
				<use xlink:href="#SVGID_13_"  overflow="visible"/>
			</clipPath>
			<g id="g188" clip-path="url(#SVGID_14_)">
				<g id="g194" transform="translate(433.9424,246.8605)">
					<path id="path196" inkscape:connector-curvature="0" fill="#2F3842" d="M-112.421,0c-0.726,0-1.307,0.582-1.307,1.308
						c0,0.727,0.581,1.308,1.307,1.308c0.727,0,1.308-0.581,1.308-1.308C-111.113,0.582-111.694,0-112.421,0 M-113.389-3.099h2.008
						v-10.582h-2.008V-3.099z"/>
				</g>
				<g id="g198" transform="translate(447.2529,238.2697)">
					<path id="path200" inkscape:connector-curvature="0" fill="#2F3842" d="M-112.421,0c0-2.093-0.97-3.844-3.15-3.844
						c-2.522,0-3.638,2.019-3.638,4.304c0,2.067,1.141,3.795,3.322,3.795C-113.729,4.255-112.421,2.454-112.421,0 M-110.36,0.17
						c0,3.354-2.085,5.564-5.381,5.564c-3.419,0-5.529-2.477-5.529-5.419c0-3.428,2.231-5.637,5.431-5.637
						C-112.689-5.322-110.36-3.187-110.36,0.17"/>
				</g>
				<g id="g202" transform="translate(455.3066,232.9475)">
					<path id="path204" inkscape:connector-curvature="0" fill="#2F3842" d="M-112.421,0c-1.165,0-1.894,0.582-2.185,1.405
						c-0.316,0.873-0.268,2.037-0.268,3.105c0,2.205,0.072,4.628,0.072,4.628h-1.67v1.426h1.67l0.634,2.59h1.359l-0.048-2.615h3.124
						V9.162h-3.124c0,0-0.047-2.013-0.071-3.95c0-1.309,0-2.134,0.144-2.666c0.17-0.582,0.582-0.775,1.091-0.775
						c0.944,0,1.744,0.605,2.13,0.92l0.243-1.405C-109.32,1.286-110.701,0-112.421,0"/>
				</g>
				<g id="g206" transform="translate(468.3613,233.1799)">
					<path id="path208" inkscape:connector-curvature="0" fill="#2F3842" d="M-112.421,0c0,0,0.024,6.021-0.048,6.967
						c-0.098,1.456-0.749,2.232-2.293,2.232c-1.618,0-2.511-0.801-2.511-0.801V0h-2.008v17.204h2.008V9.563
						c0.412,0.291,1.763,1.26,3.451,1.26c1.91,0,3.215-1.042,3.361-3.323c0.097-1.624,0.048-7.5,0.048-7.5H-112.421z"/>
				</g>
				<g id="g210" transform="translate(480.916,240.0197)">
					<path id="path212" inkscape:connector-curvature="0" fill="#2F3842" d="M-112.421,0l-5.01,0.049
						c0.024,0.681,0.608,2.629,2.602,2.629C-113.03,2.678-112.421,1.388-112.421,0 M-109.896-5.471l-0.483,1.387
						c-0.634-0.561-1.823-1.364-3.43-1.364c-2.236,0-3.768,1.558-3.768,4.114v0.194l7.246-0.047v0.557
						c0,2.456-1.361,4.615-4.158,4.615c-3.014,0-5.038-2.281-5.038-5.587c0-3.749,2.412-5.47,5.038-5.47
						C-112.519-7.072-110.891-6.369-109.896-5.471"/>
				</g>
				<g id="g214" transform="translate(493.0244,240.0197)">
					<path id="path216" inkscape:connector-curvature="0" fill="#2F3842" d="M-112.421,0l-5.009,0.049
						c0.025,0.681,0.609,2.629,2.602,2.629C-113.028,2.678-112.421,1.388-112.421,0 M-109.895-5.471l-0.484,1.387
						c-0.632-0.561-1.823-1.364-3.428-1.364c-2.238,0-3.768,1.558-3.768,4.114v0.194l7.244-0.047v0.557
						c0,2.456-1.361,4.615-4.156,4.615c-3.016,0-5.039-2.281-5.039-5.587c0-3.749,2.413-5.47,5.039-5.47
						C-112.519-7.072-110.891-6.369-109.895-5.471"/>
				</g>
			</g>
		</g>
	</g>
	<g id="g218">
		<g>
			<defs>
				<rect id="SVGID_15_" x="-252.736" y="-99.213" width="1122.52" height="793.701"/>
			</defs>
			<clipPath id="SVGID_16_">
				<use xlink:href="#SVGID_15_"  overflow="visible"/>
			</clipPath>
			<g id="g220" clip-path="url(#SVGID_16_)">
				<g id="g226" transform="translate(505.3594,233.1799)">
					<path id="path228" inkscape:connector-curvature="0" fill="#2F3842" d="M-112.421,0l-4.505,5.479V0h-2.009v17.204h2.009V5.867
						l4.553,4.725h2.568l-4.868-4.773L-109.805,0H-112.421z"/>
				</g>
				<g id="g230" transform="translate(520.4121,232.9475)">
					<path id="path232" inkscape:connector-curvature="0" fill="#2F3842" d="M-112.421,0h-1.356l-4.505,10.8h2.18l3.148-7.914
						l3.148,7.914h1.987L-112.421,0z"/>
				</g>
			</g>
		</g>
	</g>
	<g id="g234">
		<g>
			<defs>
				<rect id="SVGID_17_" x="-219.846" y="198.25" width="1054.121" height="179.045"/>
			</defs>
			<clipPath id="SVGID_18_">
				<use xlink:href="#SVGID_17_"  overflow="visible"/>
			</clipPath>
			<g id="g236" clip-path="url(#SVGID_18_)">
				<g id="g242" transform="translate(535.3809,238.2697)">
					<path id="path244" inkscape:connector-curvature="0" d="M-112.421,0c0-2.093-0.97-3.844-3.152-3.844
						c-2.521,0-3.636,2.019-3.636,4.304c0,2.067,1.14,3.795,3.321,3.795C-113.731,4.255-112.421,2.454-112.421,0 M-110.36,0.17
						c0,3.354-2.086,5.564-5.382,5.564c-3.418,0-5.529-2.477-5.529-5.419c0-3.428,2.231-5.637,5.431-5.637
						C-112.689-5.322-110.36-3.187-110.36,0.17"/>
				</g>
				<g id="g246" transform="translate(548.9424,238.2697)">
					<path id="path248" inkscape:connector-curvature="0" fill="#2F3842" d="M-112.421,0c0-2.093-0.969-3.844-3.151-3.844
						c-2.521,0-3.636,2.019-3.636,4.304c0,2.067,1.14,3.795,3.321,3.795C-113.73,4.255-112.421,2.454-112.421,0 M-110.359,0.17
						c0,3.354-2.086,5.564-5.382,5.564c-3.419,0-5.529-2.477-5.529-5.419c0-3.428,2.231-5.637,5.431-5.637
						C-112.688-5.322-110.359-3.187-110.359,0.17"/>
				</g>
				<g id="g250" transform="translate(560.4082,241.4631)">
					<path id="path252" inkscape:connector-curvature="0" fill="#2F3842" d="M-112.421,0c0,0-0.775,0.68-1.816,0.68
						c-1.284,0-2.058-1.7-2.058-1.7v-7.263h-2.01V2.324h2.01V0.486c0.557,0.992,1.524,2.058,2.735,2.058
						c1.187,0,1.672-0.701,1.672-0.701L-112.421,0z"/>
				</g>
				<g id="g254" transform="translate(575.8037,235.3117)">
					<path id="path256" inkscape:connector-curvature="0" fill="#2F3842" d="M-112.421,0c0,0-0.872-0.827-2.156-0.827
						c-2.278,0-3.465,1.507-3.465,4.058c0,3.137,1.768,4.038,3.465,4.038c1.356,0,2.156-0.61,2.156-0.61V0z M-110.413-2.137v17.209
						h-2.008v-6.74c0,0-0.848,0.362-2.181,0.362c-3.27,0-5.53-2.423-5.53-5.801c0-3.089,1.92-5.2,4.537-5.2
						c1.695,0,2.592,0.679,3.174,1.141v-0.971L-110.413-2.137z"/>
				</g>
				<g id="g258" transform="translate(588.4463,240.0197)">
					<path id="path260" inkscape:connector-curvature="0" fill="#2F3842" d="M-112.421,0l-5.01,0.049
						c0.024,0.681,0.607,2.629,2.601,2.629C-113.031,2.678-112.421,1.388-112.421,0 M-109.897-5.471l-0.485,1.387
						c-0.631-0.561-1.821-1.364-3.428-1.364c-2.236,0-3.767,1.558-3.767,4.114v0.194l7.246-0.047v0.557
						c0,2.456-1.362,4.615-4.158,4.615c-3.015,0-5.038-2.281-5.038-5.587c0-3.749,2.412-5.47,5.038-5.47
						C-112.52-7.072-110.891-6.369-109.897-5.471"/>
				</g>
			</g>
		</g>
	</g>
	<g id="g262">
		<g>
			<defs>
				<rect id="SVGID_19_" x="-252.736" y="-99.213" width="1122.52" height="793.701"/>
			</defs>
			<clipPath id="SVGID_20_">
				<use xlink:href="#SVGID_19_"  overflow="visible"/>
			</clipPath>
			<g id="g264" clip-path="url(#SVGID_20_)">
				<g id="g270" transform="translate(612.3223,233.1799)">
					<path id="path272" inkscape:connector-curvature="0" fill="#2F3842" d="M-112.421,0l-10.219,12.839V0h-1.95v16.302h1.95
						l10.219-12.834v12.834h1.949V0H-112.421z"/>
				</g>
			</g>
		</g>
	</g>
	<g id="g274">
		<g>
			<defs>
				<rect id="SVGID_21_" x="-219.846" y="198.25" width="1054.121" height="179.045"/>
			</defs>
			<clipPath id="SVGID_22_">
				<use xlink:href="#SVGID_21_"  overflow="visible"/>
			</clipPath>
			<g id="g276" clip-path="url(#SVGID_22_)">
				<g id="g282" transform="translate(625.2783,240.0197)">
					<path id="path284" inkscape:connector-curvature="0" fill="#2F3842" d="M-112.421,0l-5.009,0.049
						c0.024,0.681,0.607,2.629,2.601,2.629C-113.029,2.678-112.421,1.388-112.421,0 M-109.897-5.471l-0.483,1.387
						c-0.632-0.561-1.823-1.364-3.428-1.364c-2.238,0-3.767,1.558-3.767,4.114v0.194l7.244-0.047v0.557
						c0,2.456-1.361,4.615-4.156,4.615c-3.016,0-5.039-2.281-5.039-5.587c0-3.749,2.411-5.47,5.039-5.47
						C-112.519-7.072-110.891-6.369-109.897-5.471"/>
				</g>
				<g id="g286" transform="translate(637.9951,235.3117)">
					<path id="path288" inkscape:connector-curvature="0" fill="#2F3842" d="M-112.421,0c0,0-0.872-0.827-2.156-0.827
						c-2.278,0-3.465,1.507-3.465,4.058c0,3.137,1.768,4.038,3.465,4.038c1.356,0,2.156-0.61,2.156-0.61V0z M-110.413-2.137v17.209
						h-2.008v-6.74c0,0-0.848,0.362-2.18,0.362c-3.271,0-5.53-2.423-5.53-5.801c0-3.089,1.918-5.2,4.535-5.2
						c1.696,0,2.593,0.679,3.175,1.141v-0.971L-110.413-2.137z"/>
				</g>
				<g id="g290" transform="translate(650.6367,240.0197)">
					<path id="path292" inkscape:connector-curvature="0" fill="#2F3842" d="M-112.421,0l-5.009,0.049
						c0.024,0.681,0.608,2.629,2.601,2.629C-113.029,2.678-112.421,1.388-112.421,0 M-109.896-5.471l-0.484,1.387
						c-0.632-0.561-1.823-1.364-3.428-1.364c-2.238,0-3.767,1.558-3.767,4.114v0.194l7.244-0.047v0.557
						c0,2.456-1.361,4.615-4.156,4.615c-3.016,0-5.038-2.281-5.038-5.587c0-3.749,2.411-5.47,5.038-5.47
						C-112.519-7.072-110.89-6.369-109.896-5.471"/>
				</g>
				<g id="g294" transform="translate(662.3174,241.4631)">
					<path id="path296" inkscape:connector-curvature="0" fill="#2F3842" d="M-112.421,0c0,0-0.774,0.68-1.815,0.68
						c-1.284,0-2.06-1.7-2.06-1.7v-7.263h-2.008V2.324h2.008V0.486c0.558,0.992,1.526,2.058,2.737,2.058
						c1.187,0,1.67-0.701,1.67-0.701L-112.421,0z"/>
				</g>
			</g>
		</g>
	</g>
	<g id="g298">
		<g>
			<defs>
				<rect id="SVGID_23_" x="-252.736" y="-99.213" width="1122.52" height="793.701"/>
			</defs>
			<clipPath id="SVGID_24_">
				<use xlink:href="#SVGID_23_"  overflow="visible"/>
			</clipPath>
			<g id="g300" clip-path="url(#SVGID_24_)">
				<path id="path306" inkscape:connector-curvature="0" fill="#2F3842" d="M553.022,250.383h2.008V233.18h-2.008V250.383z"/>
			</g>
		</g>
	</g>
	<g id="g308">
		<g>
			<defs>
				<rect id="SVGID_25_" x="-219.846" y="198.25" width="1054.121" height="179.045"/>
			</defs>
			<clipPath id="SVGID_26_">
				<use xlink:href="#SVGID_25_"  overflow="visible"/>
			</clipPath>
			<g id="g310" clip-path="url(#SVGID_26_)">
				<g id="g316" transform="translate(676.4873,238.2697)">
					<path id="path318" inkscape:connector-curvature="0" fill="#2F3842" d="M-112.421,0l-0.024-2.971
						c-0.411-0.414-0.992-0.9-1.79-0.9c-0.823,0-1.864,0.486-1.864,1.777c0,0.925,0.847,1.509,1.864,1.776
						C-113.292-0.05-112.421,0-112.421,0 M-108.569-4.646v1.067c0,0-0.46-0.243-1.067-0.243c-0.725,0-0.943,0.487-0.943,1.753
						c0,1.046,0.095,3.09,0.095,5.208c0,1.433-1.065,2.596-3.268,2.596c-2.106,0-4.057-1.357-4.057-1.357l0.362-1.482
						c0,0,1.227,1.241,3.066,1.241c0.629,0,1.308-0.121,1.67-0.585c0.388-0.462,0.338-1.046,0.338-1.63
						c0-0.487-0.023-0.778-0.023-0.778s-1.792-0.148-3.026-0.561c-1.376-0.461-2.628-1.29-2.628-3.092
						c0-1.7,1.325-2.814,2.967-2.814c1.573,0,2.76,1.259,2.76,1.259s0.435-1.211,1.525-1.211
						C-109.779-5.275-108.569-4.646-108.569-4.646"/>
				</g>
				<g id="g320" transform="translate(690.0527,233.1799)">
					<path id="path322" inkscape:connector-curvature="0" fill="#2F3842" d="M-112.421,0c0,0,0.024,6.018-0.049,6.964
						c-0.097,1.454-0.749,2.206-2.293,2.206c-1.617,0-2.511-0.849-2.511-0.849V0h-2.007v10.604h2.007V9.535
						c0.484,0.34,1.762,1.288,3.453,1.288c1.906,0,3.214-1.045,3.36-3.327C-110.364,5.873-110.413,0-110.413,0H-112.421z"/>
				</g>
				<g id="g324" transform="translate(703.2148,235.3117)">
					<path id="path326" inkscape:connector-curvature="0" fill="#2F3842" d="M-112.421,0c0,0-0.874-0.827-2.157-0.827
						c-2.277,0-3.464,1.507-3.464,4.058c0,3.137,1.768,4.038,3.464,4.038c1.356,0,2.157-0.61,2.157-0.61V0z M-110.413-2.137v17.209
						h-2.008v-6.74c0,0-0.85,0.362-2.181,0.362c-3.27,0-5.53-2.423-5.53-5.801c0-3.089,1.92-5.2,4.537-5.2
						c1.696,0,2.591,0.679,3.174,1.141v-0.971L-110.413-2.137z"/>
				</g>
				<g id="g328" transform="translate(712.1553,232.9768)">
					<path id="path330" inkscape:connector-curvature="0" fill="#2F3842" d="M-112.421,0c-1.812,0-3.284,0.558-3.284,0.558V2.38
						c0,0,1.639-0.901,3.405-0.901c1.281,0,1.983,0.437,1.983,1.336c0,0.827-0.872,1.338-2.274,1.921
						c-1.547,0.658-2.85,1.411-2.85,3.259c0,2.04,1.713,3.033,3.624,3.033c1.669,0,2.686-0.412,2.686-0.412V8.942
						c0,0-1.064,0.634-2.709,0.634c-1.185,0-1.767-0.537-1.767-1.362c0-0.948,1.186-1.459,2.443-2.019
						c1.499-0.656,2.709-1.409,2.709-2.917C-108.455,1.091-110.365,0-112.421,0"/>
				</g>
				<g id="g332" transform="translate(725.7354,240.0197)">
					<path id="path334" inkscape:connector-curvature="0" fill="#2F3842" d="M-112.421,0l-5.01,0.049
						c0.024,0.681,0.609,2.629,2.603,2.629C-113.029,2.678-112.421,1.388-112.421,0 M-109.897-5.471l-0.482,1.387
						c-0.634-0.561-1.824-1.364-3.428-1.364c-2.235,0-3.768,1.558-3.768,4.114v0.194l7.245-0.047v0.557
						c0,2.456-1.362,4.615-4.158,4.615c-3.015,0-5.038-2.281-5.038-5.587c0-3.749,2.411-5.47,5.038-5.47
						C-112.519-7.072-110.888-6.369-109.897-5.471"/>
				</g>
			</g>
		</g>
	</g>
	<g id="g336">
		<g>
			<defs>
				<rect id="SVGID_27_" x="-252.736" y="-99.213" width="1122.52" height="793.701"/>
			</defs>
			<clipPath id="SVGID_28_">
				<use xlink:href="#SVGID_27_"  overflow="visible"/>
			</clipPath>
			<g id="g338" clip-path="url(#SVGID_28_)">
				<path id="path344" inkscape:connector-curvature="0" fill="#2F3842" d="M624.878,250.383h2.008V233.18h-2.008V250.383z"/>
			</g>
		</g>
	</g>
	<g id="g346">
		<g>
			<defs>
				<rect id="SVGID_29_" x="-219.846" y="198.25" width="1054.121" height="179.045"/>
			</defs>
			<clipPath id="SVGID_30_">
				<use xlink:href="#SVGID_29_"  overflow="visible"/>
			</clipPath>
			<g id="g348" clip-path="url(#SVGID_30_)">
				<g id="g354" transform="translate(749.9316,240.0197)">
					<path id="path356" inkscape:connector-curvature="0" fill="#2F3842" d="M-112.421,0l-5.009,0.049
						c0.024,0.681,0.606,2.629,2.6,2.629C-113.029,2.678-112.421,1.388-112.421,0 M-109.897-5.471l-0.485,1.387
						c-0.63-0.561-1.821-1.364-3.425-1.364c-2.239,0-3.768,1.558-3.768,4.114v0.194l7.243-0.047v0.557
						c0,2.456-1.361,4.615-4.155,4.615c-3.016,0-5.039-2.281-5.039-5.587c0-3.749,2.411-5.47,5.039-5.47
						C-112.519-7.072-110.891-6.369-109.897-5.471"/>
				</g>
				<g id="g358" transform="translate(758.3271,232.9475)">
					<path id="path360" inkscape:connector-curvature="0" fill="#2F3842" d="M-112.421,0c-1.167,0-1.896,0.582-2.188,1.405
						c-0.316,0.873-0.267,2.037-0.267,3.105c0,2.205,0.073,4.628,0.073,4.628h-1.672v1.426h1.672l0.633,2.59h1.361l-0.049-2.615
						h3.125V9.162h-3.125c0,0-0.048-2.013-0.073-3.95c0-1.309,0-2.134,0.147-2.666c0.166-0.582,0.579-0.775,1.089-0.775
						c0.943,0,1.743,0.605,2.131,0.92l0.243-1.405C-109.321,1.286-110.704,0-112.421,0"/>
				</g>
				<g id="g362" transform="translate(767.0937,232.9475)">
					<path id="path364" inkscape:connector-curvature="0" fill="#2F3842" d="M-112.421,0c-1.167,0-1.897,0.582-2.188,1.405
						c-0.315,0.873-0.267,2.037-0.267,3.105c0,2.205,0.073,4.628,0.073,4.628h-1.672v1.426h1.672l0.633,2.59h1.36l-0.048-2.615
						h3.125V9.162h-3.125c0,0-0.048-2.013-0.072-3.95c0-1.309,0-2.134,0.146-2.666c0.166-0.582,0.579-0.775,1.089-0.775
						c0.945,0,1.744,0.605,2.131,0.92l0.244-1.405C-109.32,1.286-110.704,0-112.421,0"/>
				</g>
				<g id="g366" transform="translate(779.3535,240.0197)">
					<path id="path368" inkscape:connector-curvature="0" fill="#2F3842" d="M-112.421,0l-5.007,0.049
						c0.025,0.681,0.606,2.629,2.6,2.629C-113.027,2.678-112.421,1.388-112.421,0 M-109.894-5.471l-0.485,1.387
						c-0.631-0.561-1.822-1.364-3.428-1.364c-2.235,0-3.768,1.558-3.768,4.114v0.194l7.245-0.047v0.557
						c0,2.456-1.362,4.615-4.155,4.615c-3.018,0-5.041-2.281-5.041-5.587c0-3.749,2.414-5.47,5.041-5.47
						C-112.519-7.072-110.888-6.369-109.894-5.471"/>
				</g>
				<g id="g370" transform="translate(791.0381,241.4631)">
					<path id="path372" inkscape:connector-curvature="0" fill="#2F3842" d="M-112.421,0c0,0-0.776,0.68-1.819,0.68
						c-1.281,0-2.058-1.7-2.058-1.7v-7.263h-2.008V2.324h2.008V0.486c0.556,0.992,1.526,2.058,2.736,2.058
						c1.187,0,1.671-0.701,1.671-0.701L-112.421,0z"/>
				</g>
				<g id="g374" transform="translate(800.2529,240.0197)">
					<path id="path376" inkscape:connector-curvature="0" fill="#2F3842" d="M-112.421,0l-5.009,0.049
						c0.024,0.681,0.607,2.629,2.601,2.629C-113.029,2.678-112.421,1.388-112.421,0 M-109.896-5.471l-0.483,1.387
						c-0.633-0.561-1.823-1.364-3.428-1.364c-2.235,0-3.768,1.558-3.768,4.114v0.194l7.246-0.047v0.557
						c0,2.456-1.363,4.615-4.158,4.615c-3.015,0-5.038-2.281-5.038-5.587c0-3.749,2.411-5.47,5.038-5.47
						C-112.518-7.072-110.89-6.369-109.896-5.471"/>
				</g>
				<g id="g378" transform="translate(812.9111,233.1799)">
					<path id="path380" inkscape:connector-curvature="0" fill="#2F3842" d="M-112.421,0c0,0,0.024,6.018-0.049,6.964
						c-0.095,1.454-0.747,2.206-2.292,2.206c-1.618,0-2.512-0.849-2.512-0.849V0h-2.007v10.604h2.007V9.535
						c0.484,0.34,1.765,1.288,3.453,1.288c1.91,0,3.214-1.045,3.36-3.327C-110.364,5.873-110.413,0-110.413,0H-112.421z"/>
				</g>
			</g>
		</g>
	</g>
</g>
</svg>
